<?xml version="1.0" encoding="UTF-8"?>
<!DOCTYPE svg PUBLIC "-//W3C//DTD SVG 1.1//EN" "http://www.w3.org/Graphics/SVG/1.1/DTD/svg11.dtd">
<svg version="1.1" xmlns="http://www.w3.org/2000/svg" xmlns:xlink="http://www.w3.org/1999/xlink" x="0" y="0" width="641.448" height="199.375" viewBox="0, 0, 641.448, 199.375">
  <g id="Title" transform="translate(-191.276, -131.276)">
    <g>
      <path d="M303.599,235.019 L280.136,195.095 C279.033,193.219 277.748,192.24 276.21,192.039 C274.824,191.828 273.362,192.293 271.721,193.258 L255.716,202.663 L265.673,219.606 L284.375,208.615 L300.809,236.58 C301.533,237.811 301.615,239.025 301.163,240 C300.735,240.883 299.9,241.61 298.742,242.054 C297.349,242.636 295.738,242.715 294.353,242.504 L294.214,243.611 C296.203,244.177 298.313,244.278 300.196,243.723 C302.137,243.134 303.5,242.097 304.2,240.739 C304.973,239.102 304.805,237.071 303.599,235.019 z M291.359,228.015 L290.256,226.139 L280.935,231.617 L275.629,222.589 L282.957,218.282 L281.855,216.406 L249.611,235.356 L250.713,237.232 L258.862,232.443 L264.168,241.471 L253.791,247.57 L254.894,249.446 L265.212,243.382 C266.6,245.878 267.044,248.378 267.078,251.119 C267.049,254.291 266.203,257.549 264.695,260.486 L265.626,260.727 C268.14,257.357 269.29,254.078 269.632,251.037 C269.944,247.542 269.19,244.514 267.909,241.797 L279.223,235.147 L286.838,248.103 L289.652,246.45 L282.037,233.493 z M257.286,217.279 L253.461,210.772 C252.497,209.13 251.235,208.057 249.756,207.822 C248.395,207.518 246.864,207.866 245.222,208.831 L229.1,218.306 L258.455,268.254 L261.151,266.669 L241.754,233.663 L255.296,225.705 C257.055,224.671 257.932,223.209 258.294,221.813 C258.633,220.51 258.285,218.979 257.286,217.279 z M278.759,199.06 L262.93,208.362 L259.657,202.793 L272.906,195.006 C274.254,194.214 276.381,195.014 276.967,196.011 z M283.238,206.681 L267.409,215.983 L263.998,210.179 L279.827,200.877 z M252.084,214.736 L236.138,224.107 L232.865,218.538 L246.114,210.751 C247.463,209.959 249.638,210.574 250.224,211.57 z M254.875,219.485 C255.771,221.009 255.039,223.253 253.515,224.149 L240.617,231.729 L237.206,225.925 L253.152,216.553 z M278.121,233.271 L266.982,239.817 L261.676,230.789 L272.815,224.243 z" fill="#FFFFFF"/>
      <path d="M371.294,210.833 C368.37,208.083 364.579,205.732 360.502,204.36 C357.078,203.179 353.488,202.713 350.154,203.314 L347.974,197.523 L355.866,194.553 C356.693,194.241 357.376,192.967 357.876,191.979 C358.376,190.992 358.614,189.885 358.302,189.058 L353.32,175.821 C352.913,174.739 351.956,173.936 350.866,173.548 C349.751,173.095 348.438,173.081 347.356,173.488 L335.137,178.088 C335.961,175.452 336.554,172.395 336.639,170.111 L333.075,171.453 C333.261,174.071 333.272,176.61 332.909,178.926 L324.572,182.064 L332.573,203.32 L345.111,198.601 L347.147,204.011 C344.768,204.833 342.621,206.077 340.688,207.313 C340.408,206.184 340.192,205.03 339.912,203.9 L336.897,204.962 C337.273,206.347 337.801,208.328 338.144,209.434 C336.133,211.426 334.481,214.373 333.904,217.278 C333.564,219.077 333.695,221.935 334.445,223.541 C335.259,225.124 336.644,225.91 338.061,225.813 C339.263,225.724 340.503,224.966 341.242,223.453 C341.861,222.203 342.216,220.253 342.095,218.191 C341.947,214.905 341.449,210.878 341.088,208.762 C342.925,207.271 345.12,206.154 347.602,205.22 L351.674,216.039 C352.153,217.311 351.94,218.482 351.304,219.302 C350.812,219.924 350.032,220.362 349.069,220.507 C347.573,220.779 345.957,220.152 344.492,219.541 L344.095,220.417 C345.887,221.705 347.854,222.49 350.448,222.24 C351.865,222.143 353.018,221.346 353.86,220.302 C354.901,218.82 355.257,216.87 354.562,215.024 L350.729,204.842 C353.889,204.742 357.193,205.606 360.195,207.019 C363.723,208.67 366.997,210.998 369.483,213.549 z M352.245,162.348 L351.502,160.375 L312.999,174.868 L324.953,206.625 C326.414,210.507 327.502,214.747 328.136,218.941 C328.738,222.856 328.91,226.787 328.556,230.481 L329.615,230.591 C330.342,226.539 330.48,222.273 330.1,217.983 C329.664,212.771 328.496,207.543 326.651,202.643 L316.542,175.787 z M321.189,201.066 L320.227,201.211 C320.708,210.402 320.377,219.754 318.637,228.838 C317.403,228.067 315.586,226.716 314.67,225.826 C313.977,225.142 313.705,224.228 314.006,223.097 C315.146,218.018 316.677,207.996 316.768,203.602 C316.735,202.743 316.304,202.178 315.755,201.877 C312.386,199.875 308.611,197.954 304.876,196.526 C307.523,193.713 310.082,190.28 311.351,186.896 C311.525,186.394 311.548,185.877 311.381,185.431 C311.213,184.986 310.894,184.525 310.432,184.262 C306.952,182.158 303.017,180.006 298.821,178.316 L297.32,181.278 C300.354,182.389 305.817,185.128 308.509,186.875 C309.147,187.217 309.442,188.195 308.958,189.032 C307.401,191.652 305.645,194.129 303.459,196.042 L302.436,199.116 C306.561,200.615 310.502,202.4 314.158,204.585 C314.732,204.95 315.298,205.682 315.219,206.438 C314.645,211.667 313.705,218.051 312.55,223.282 C312.328,224.237 312.688,225.773 313.477,226.711 C315.733,229.422 318.41,231.902 321.246,234.031 C323.175,223.133 322.644,212.071 321.189,201.066 z M352.492,182.308 L330.982,190.405 L328.203,183.023 L347.04,175.932 C348.377,175.429 350.121,176.008 350.6,177.281 z M355.199,189.5 C355.582,190.518 354.717,192.66 353.699,193.043 L334.671,200.206 L331.748,192.442 L353.259,184.345 z M338.337,211.105 C339.265,214.534 339.763,218.56 339.544,221.84 C339.49,223.241 338.727,224.109 337.804,224.166 C337.12,224.278 336.332,223.921 335.757,222.975 C335.111,221.837 334.846,219.975 335.186,218.176 C335.708,215.509 337.129,212.722 338.337,211.105 z" fill="#FFFFFF"/>
      <path d="M438.869,198.877 L438.406,196.681 L421.639,200.22 L414.156,164.757 L428.527,161.724 L428.078,159.595 L413.706,162.628 L410.042,145.262 L406.715,145.964 L410.38,163.33 L396.008,166.362 L396.457,168.492 L410.829,165.459 L418.313,200.922 L400.415,204.699 L400.878,206.894 z M400.767,187.597 C398.303,182.836 394.872,178.764 389.856,176.07 C391.773,171.982 392.955,167.702 393.723,163.439 C394.041,161.982 393.789,160.785 393.074,160.032 C392.345,159.213 391.168,158.905 389.638,159.228 L385.047,160.197 C385.267,159.594 385.165,158.782 384.72,158.32 C382.775,156.02 379.867,153.437 377.299,151.477 L375.231,153.859 C377.827,155.952 380.56,158.364 382.652,160.702 L370.808,163.202 L371.258,165.331 L389.422,161.498 C390.154,161.343 390.84,161.963 390.715,162.684 C390.146,166.905 389.125,171.29 387.327,175.283 C384.29,174.395 380.203,175.118 377.732,177.238 C375.842,178.819 374.561,181.313 374.681,183.859 C374.752,185.512 375.607,186.93 376.816,187.717 C378.011,188.438 379.573,188.595 381.057,187.726 C382.051,187.169 382.804,186.454 383.557,185.739 L388.836,210.756 L392.229,210.04 L386.36,182.228 C387.319,180.845 388.474,179.072 389.076,177.972 C393.588,180.912 396.143,185.446 398.285,189.998 z M386.69,176.877 C385.141,180.401 382.915,184.345 380.188,186.241 C379.036,187.04 377.887,186.866 377.053,186.208 C376.22,185.55 375.715,184.475 375.809,183.274 C376.102,180.71 377.575,178.801 379.616,177.605 C381.724,176.396 384.375,176.115 386.69,176.877 z" fill="#FFFFFF"/>
      <path d="M503.883,145.293 C504.422,143.211 504.152,141.253 503.304,139.812 C502.228,138.045 500.177,136.959 497.396,137.149 L483.217,138.12 L487.193,196.192 L490.245,195.983 L486.414,140.014 L496.861,139.299 C497.947,139.224 499.133,139.62 499.871,140.456 C500.529,141.092 500.86,141.956 500.794,142.983 C500.286,149.493 497.129,155.161 493.204,160.542 C497.53,163.995 500.667,168.006 502.29,172.802 C503.222,175.465 503.405,179.133 502.754,181.563 C502.25,183.165 501.447,184.379 500.268,185.073 C499.156,185.762 497.668,185.932 496.066,185.429 C494.396,184.93 492.893,183.874 491.501,182.469 L490.671,183.276 C491.837,185.377 493.857,187.011 496.088,187.745 C498.252,188.482 500.423,188.334 502.199,187.394 C503.975,186.455 505.356,184.725 505.939,182.299 C506.73,178.905 506.366,175.59 505.271,172.53 C503.516,167.811 499.953,163.556 495.845,160.293 C499.496,155.885 502.491,150.841 503.883,145.293 z M481.735,159.282 L481.586,157.111 L472.36,157.743 C475.245,152.093 477.641,146.272 479.412,140.289 L475.952,140.525 C474.172,146.373 471.857,152.393 468.764,157.989 L462.794,158.398 L462.093,148.154 L471.659,147.499 L471.515,145.396 L461.949,146.051 L461.401,138.046 L458.28,138.259 L458.828,146.264 L447.77,147.021 L447.914,149.125 L458.972,148.368 L459.674,158.612 L445.698,159.568 L445.847,161.739 L467.624,160.248 C466.1,162.875 464.3,165.452 462.359,167.97 L455.575,168.434 C453.472,168.578 451.469,169.193 449.78,170.399 C448.221,171.528 446.899,173.118 446.491,175.122 C446.073,176.991 446.524,178.596 447.408,179.558 C448.436,180.646 450.088,180.874 452.168,180.391 L453.329,197.351 L475.716,195.819 C477.412,195.703 478.664,195.072 479.549,194.057 C480.235,193.124 480.631,191.938 480.529,190.446 L479.293,172.4 C479.182,170.772 478.614,169.447 477.594,168.495 C476.575,167.542 475.045,167.102 472.942,167.245 L466.294,167.701 C468.026,165.128 469.695,162.628 471.22,160.002 z M476.606,179.945 L455.508,181.389 L455.336,178.879 C458.787,176.53 461.966,173.177 464.665,169.789 L472.534,169.25 C474.298,169.129 475.947,170.311 476.058,171.94 z M460.594,170.067 C458.094,173.374 454.499,176.619 451.404,178.194 C450.283,178.748 449.261,178.75 448.613,178.249 C447.965,177.748 447.634,176.885 447.889,175.64 C448.199,174.188 449.205,172.96 450.375,172.13 C451.934,171.001 453.878,170.527 455.71,170.402 z M477.349,190.799 C477.447,192.224 476.246,193.601 475.296,193.666 L456.436,194.958 L455.656,183.56 L476.755,182.116 z" fill="#FFFFFF"/>
      <path d="M575.756,197.391 L575.902,195.22 L555.82,193.869 L557.418,170.123 L574.515,171.273 L574.661,169.102 L557.564,167.952 L558.531,153.568 L555.139,153.34 L554.171,167.723 L537.413,166.596 L537.267,168.767 L554.025,169.895 L552.428,193.641 L532.413,192.294 L532.267,194.465 z M578.527,150.143 L578.668,148.04 L542.099,145.579 C542.991,143.458 544.776,139.216 545.605,137.023 L542.086,136.65 C541.071,139.581 539.911,142.638 538.571,145.342 L521.202,144.173 L521.06,146.276 L537.819,147.404 C533.212,157.113 526.495,165.793 517.353,173.016 L518.04,173.948 C520.963,172.032 523.697,169.899 526.579,167.571 L524.731,195.049 L528.055,195.272 L530.146,164.199 C534.781,159.126 538.222,153.565 541.211,147.632 z" fill="#FFFFFF"/>
      <path d="M646.325,197.852 L645.207,197.548 C644.26,200.406 643.17,202.957 641.882,205.118 C640.962,206.524 639.075,207.239 637.531,206.985 C630.392,205.905 622.872,204.327 616.153,202.571 C614.637,202.183 613.725,201.228 613.522,200.212 C613.332,199.13 613.783,197.974 614.899,196.957 C622.413,190.613 633.377,183.394 642.636,177.346 C643.521,176.767 644.035,175.972 644.203,175.173 C644.276,174.494 644.135,173.839 643.701,173.261 C643.266,172.684 642.523,172.25 641.592,172.055 L623.223,168.202 C625.799,165.199 628.15,161.94 630.182,158.545 L653.275,163.389 L653.708,161.325 L631.214,156.607 C632.434,154.431 633.63,152.042 634.626,149.611 L631.499,148.955 C630.502,151.386 629.32,153.709 628.086,155.951 C626.023,155.518 624.009,155.513 622.125,155.882 C620.174,156.237 618.392,157.114 616.828,158.94 C615.061,161.071 613.845,164.22 613.752,166.98 C613.656,168.766 614.616,170.149 616.011,170.788 C617.577,171.603 619.671,171.556 621.312,170.024 L640.679,174.087 C640.945,174.142 641.061,174.584 640.806,174.808 C631.358,181.094 622.218,187.237 613.125,194.154 C611.392,195.458 610.497,197.076 610.228,198.688 C610.016,200.033 610.349,201.423 611.005,202.602 C611.833,203.957 613.21,205.01 615.059,205.468 C619.942,206.7 632.573,209.419 637.288,210.13 C638.699,210.357 639.995,210.142 641.028,209.525 C642.06,208.908 642.949,207.982 643.508,206.641 C644.708,203.905 645.669,200.98 646.325,197.852 z M605.672,193.91 L613.768,155.31 C614.006,154.179 613.71,152.936 613.079,151.97 C612.462,150.937 611.376,150.153 610.045,149.874 L597.932,147.334 L587.938,194.985 L600.649,197.651 C601.714,197.874 602.824,197.551 603.818,196.787 C604.665,196.062 605.421,195.108 605.672,193.91 z M626.921,157.861 C626.078,159.56 624.305,162.384 622.429,164.7 C620.998,166.554 619.476,168.18 618.31,168.769 C617.76,169.071 617,169.051 616.429,168.792 C615.858,168.533 615.343,168.008 615.283,167.301 C615.103,165.179 615.697,163.01 616.9,161.248 C617.995,159.671 619.567,158.472 621.479,157.97 C623.163,157.559 625.096,157.617 626.921,157.861 z M602.292,193.132 C602.055,194.263 600.816,195.532 599.618,195.281 L591.765,193.634 L600.88,150.175 L608.666,151.809 C609.798,152.046 610.57,153.667 610.346,154.732 z" fill="#FFFFFF"/>
      <path d="M719.425,203.642 L720.164,201.668 L701.126,194.531 L709.29,172.755 L706.233,171.609 L698.07,193.385 L679.223,186.32 L678.483,188.294 L697.33,195.359 L685.395,227.196 L688.452,228.341 L700.386,196.505 z M687.983,164.695 L684.545,163.406 C681.895,166.988 677.996,171.771 674.47,175.751 C670.587,180.105 666.409,184.276 661.777,187.914 L662.518,188.845 C666.242,186.465 669.927,183.416 672.903,180.901 L659.226,217.385 L662.346,218.555 L678.458,175.576 C681.434,172.479 684.919,168.412 687.983,164.695 z" fill="#FFFFFF"/>
      <path d="M780.335,246.057 L781.676,243.769 L779.916,242.738 C779.329,242.394 778.948,241.698 779.292,241.111 L781.767,236.887 C783.004,234.775 782.939,233.003 782.095,231.484 C781.393,230.126 780.039,228.939 778.406,227.825 L780.09,224.95 L789.419,230.415 L790.519,228.538 L781.19,223.073 L782.702,220.491 L779.945,218.876 L778.432,221.457 L769.103,215.992 L768.003,217.87 L777.333,223.335 L775.58,226.327 C774.455,225.826 773.085,225.339 771.916,225.048 L772.981,223.229 L770.576,221.82 L768.788,224.871 C766.737,225.009 764.632,225.509 762.765,226.544 C761.246,227.388 759.883,228.638 758.827,230.305 C757.909,231.738 758.215,233.099 758.948,234.001 C759.773,234.879 761.119,235.273 762.583,234.791 C766.256,233.633 768.838,229.629 771.17,226.187 C772.432,226.454 773.895,226.916 774.927,227.442 L767.296,240.468 L770.054,242.083 L777.719,228.999 C778.716,229.583 779.366,230.358 779.736,231.205 C780.321,232.494 780.231,233.859 779.681,234.798 L776.278,240.607 C775.831,241.369 775.815,242.069 776.02,242.662 C776.273,243.441 776.932,244.063 777.519,244.407 z M793.338,223.726 L794.472,221.79 L772.704,209.039 C772.841,208.804 773.068,208.148 773.063,207.752 C772.954,206.19 772.712,204.315 772.231,202.851 L769.166,203.105 C769.438,204.525 769.709,205.945 769.711,207.286 L746.242,193.537 L732.081,217.711 C729.881,221.466 727.54,225.06 724.998,228.457 C721.892,232.548 718.42,236.188 714.557,239.285 L715.148,240.025 C719.43,237.962 723.647,234.127 727.218,229.915 C730.421,226.196 733.189,222.143 735.114,218.857 L747.865,197.089 z M765.891,216.633 L766.991,214.755 L759.07,210.115 L760.617,207.475 L757.918,205.894 L756.371,208.534 L747.042,203.069 L745.942,204.947 L755.271,210.412 L753.724,213.052 C752.531,212.668 751.303,212.343 750.403,212.13 L751.296,210.605 L748.891,209.196 L747.172,212.129 C744.807,212.399 742.485,213.403 740.716,214.81 C739.167,216.109 737.96,217.766 737.28,219.732 C736.882,220.681 737.253,221.529 737.888,222.059 C738.523,222.588 739.482,222.835 740.354,222.557 C741.725,222.1 742.975,221.177 744.177,220.068 C746.29,218.075 748.174,215.396 749.563,213.294 C750.86,213.502 752.054,213.886 752.934,214.401 L745.269,227.486 L747.968,229.067 L755.667,215.924 C756.513,216.498 757.246,217.4 757.547,218.365 C757.966,219.398 757.886,220.612 757.267,221.668 L752.799,229.296 L755.146,230.671 L759.27,223.63 C760.336,221.811 760.329,220.073 759.706,218.447 C759.072,216.973 757.904,215.737 756.355,214.75 L757.97,211.993 z M767.13,266.85 C767.592,266.332 767.818,265.677 767.717,264.908 C766.957,260.286 765.903,255.492 764.433,251.006 L761.397,251.749 C762.063,254.11 762.896,256.725 763.268,258.914 C760.766,259.418 757.991,259.447 755.387,259.183 C754.511,259.064 753.259,258.646 752.599,258.023 C749.878,255.404 747.417,252.071 745.015,248.773 C752.637,248.273 760.457,246.628 768.317,244.376 L764.679,242.245 C763.19,242.633 760.12,243.436 758.235,243.829 L740.281,233.311 C745.178,234.368 751.081,234.515 756.407,234.168 L751.713,231.418 C746.612,232.055 741.492,232.05 736.218,230.695 L735.015,232.748 L755.375,244.675 C751.315,245.686 747.213,245.962 743.086,246.145 C741.299,243.68 739.185,241.102 737.274,239.116 C735.471,237.35 733.442,236.24 730.863,236.069 C729.194,235.958 727.554,236.337 726.059,237.274 C724.599,238.153 723.792,240.202 724.078,241.867 C724.485,243.997 726.171,245.693 728.127,246.524 C732.426,248.333 736.968,248.787 741.505,248.844 C744.308,252.535 746.896,255.785 749.626,259.197 C750.051,259.682 750.604,260.085 751.132,260.394 C751.753,260.679 752.408,260.905 753.074,260.98 C756.519,261.422 760.142,261.022 763.643,260.158 C764.139,261.867 764.459,263.473 764.676,265.255 C764.705,265.744 764.444,266.459 764.003,266.673 C763.714,266.898 763.214,267.078 762.876,267.116 L763.134,268.292 C763.927,268.283 764.73,268.123 765.508,267.87 C766.101,267.666 766.704,267.31 767.13,266.85 z M767.626,226.318 C766.03,228.772 764.18,231.392 761.583,232.866 C760.981,233.222 760.291,233.054 759.89,232.662 C759.548,232.304 759.402,231.746 759.805,231.193 C760.757,229.702 761.993,228.534 763.512,227.69 C764.776,227.012 766.147,226.555 767.626,226.318 z M746.078,213.459 C744.541,215.947 742.068,219.227 739.795,220.417 C739.006,220.822 738.278,220.317 738.607,219.485 C739.153,218.15 740.213,216.879 741.438,215.863 C742.884,214.74 744.589,213.848 746.078,213.459 z M739.401,246.114 C735.363,245.877 731.222,245.815 727.374,243.64 C726.2,242.952 725.243,241.761 725.554,240.289 C725.782,238.688 727.218,237.717 728.873,237.583 C730.958,237.386 732.719,238.417 733.969,239.78 C735.904,241.859 737.745,243.962 739.401,246.114 z" fill="#FFFFFF"/>
    </g>
  </g>
</svg>
